<mxfile host="Electron" modified="2024-07-12T07:58:38.981Z" agent="Mozilla/5.0 (X11; Linux x86_64) AppleWebKit/537.36 (KHTML, like Gecko) draw.io/24.6.4 Chrome/124.0.6367.207 Electron/30.0.6 Safari/537.36" etag="luRyblzX-tqwdU4qYcj1" version="24.6.4" type="device" pages="2">
  <diagram id="prtHgNgQTEPvFCAcTncT" name="ProcessTree">
    <mxGraphModel dx="1070" dy="947" grid="1" gridSize="10" guides="1" tooltips="1" connect="1" arrows="1" fold="1" page="1" pageScale="1" pageWidth="827" pageHeight="1169" math="0" shadow="0">
      <root>
        <mxCell id="0" />
        <mxCell id="1" parent="0" />
        <UserObject label="upm" treeRoot="1" id="0gxmMsAvt_M_BW1Q_xT--2">
          <mxCell style="whiteSpace=wrap;html=1;align=center;treeFolding=1;treeMoving=1;newEdgeStyle={&quot;edgeStyle&quot;:&quot;elbowEdgeStyle&quot;,&quot;startArrow&quot;:&quot;none&quot;,&quot;endArrow&quot;:&quot;none&quot;};fillColor=#dae8fc;strokeColor=#6c8ebf;" parent="1" vertex="1">
            <mxGeometry x="340" y="260" width="120" height="60" as="geometry" />
          </mxCell>
        </UserObject>
        <mxCell id="0gxmMsAvt_M_BW1Q_xT--3" value="Worker&lt;div&gt;(Privilege)&lt;br&gt;&lt;/div&gt;" style="whiteSpace=wrap;html=1;align=center;verticalAlign=middle;treeFolding=1;treeMoving=1;newEdgeStyle={&quot;edgeStyle&quot;:&quot;elbowEdgeStyle&quot;,&quot;startArrow&quot;:&quot;none&quot;,&quot;endArrow&quot;:&quot;none&quot;};fillColor=#fff2cc;strokeColor=#d6b656;" parent="1" vertex="1">
          <mxGeometry x="550" y="360" width="100" height="60" as="geometry" />
        </mxCell>
        <mxCell id="0gxmMsAvt_M_BW1Q_xT--4" value="" style="edgeStyle=elbowEdgeStyle;elbow=vertical;sourcePerimeterSpacing=0;targetPerimeterSpacing=0;startArrow=none;endArrow=none;rounded=0;curved=0;exitX=0.5;exitY=1;exitDx=0;exitDy=0;" parent="1" source="0gxmMsAvt_M_BW1Q_xT--2" target="0gxmMsAvt_M_BW1Q_xT--3" edge="1">
          <mxGeometry relative="1" as="geometry">
            <mxPoint x="450" y="330" as="sourcePoint" />
          </mxGeometry>
        </mxCell>
        <mxCell id="0gxmMsAvt_M_BW1Q_xT--5" value="Worker&lt;div&gt;(Normal)&lt;/div&gt;" style="whiteSpace=wrap;html=1;align=center;verticalAlign=middle;treeFolding=1;treeMoving=1;newEdgeStyle={&quot;edgeStyle&quot;:&quot;elbowEdgeStyle&quot;,&quot;startArrow&quot;:&quot;none&quot;,&quot;endArrow&quot;:&quot;none&quot;};fillColor=#fff2cc;strokeColor=#d6b656;" parent="1" vertex="1">
          <mxGeometry x="150" y="360" width="100" height="60" as="geometry" />
        </mxCell>
        <mxCell id="0gxmMsAvt_M_BW1Q_xT--6" value="" style="edgeStyle=elbowEdgeStyle;elbow=vertical;sourcePerimeterSpacing=0;targetPerimeterSpacing=0;startArrow=none;endArrow=none;rounded=0;curved=0;exitX=0.5;exitY=1;exitDx=0;exitDy=0;" parent="1" source="0gxmMsAvt_M_BW1Q_xT--2" target="0gxmMsAvt_M_BW1Q_xT--5" edge="1">
          <mxGeometry relative="1" as="geometry">
            <mxPoint x="414" y="280" as="sourcePoint" />
          </mxGeometry>
        </mxCell>
        <mxCell id="0gxmMsAvt_M_BW1Q_xT--7" value="&lt;div&gt;Job*&lt;/div&gt;&lt;div&gt;(brew upgrade)&lt;/div&gt;" style="whiteSpace=wrap;html=1;align=center;verticalAlign=middle;treeFolding=1;treeMoving=1;newEdgeStyle={&quot;edgeStyle&quot;:&quot;elbowEdgeStyle&quot;,&quot;startArrow&quot;:&quot;none&quot;,&quot;endArrow&quot;:&quot;none&quot;};" parent="1" vertex="1">
          <mxGeometry x="150" y="460" width="100" height="60" as="geometry" />
        </mxCell>
        <mxCell id="0gxmMsAvt_M_BW1Q_xT--8" value="" style="edgeStyle=elbowEdgeStyle;elbow=vertical;sourcePerimeterSpacing=0;targetPerimeterSpacing=0;startArrow=none;endArrow=none;rounded=0;curved=0;exitX=0.5;exitY=1;exitDx=0;exitDy=0;" parent="1" source="0gxmMsAvt_M_BW1Q_xT--5" target="0gxmMsAvt_M_BW1Q_xT--7" edge="1">
          <mxGeometry relative="1" as="geometry">
            <mxPoint x="120" y="440" as="sourcePoint" />
          </mxGeometry>
        </mxCell>
        <mxCell id="0gxmMsAvt_M_BW1Q_xT--10" value="Job*&lt;div&gt;(apt search)&lt;/div&gt;" style="whiteSpace=wrap;html=1;align=center;verticalAlign=middle;treeFolding=1;treeMoving=1;newEdgeStyle={&quot;edgeStyle&quot;:&quot;elbowEdgeStyle&quot;,&quot;startArrow&quot;:&quot;none&quot;,&quot;endArrow&quot;:&quot;none&quot;};" parent="1" vertex="1">
          <mxGeometry x="20" y="460" width="100" height="60" as="geometry" />
        </mxCell>
        <mxCell id="0gxmMsAvt_M_BW1Q_xT--11" value="" style="edgeStyle=elbowEdgeStyle;elbow=vertical;sourcePerimeterSpacing=0;targetPerimeterSpacing=0;startArrow=none;endArrow=none;rounded=0;curved=0;exitX=0.5;exitY=1;exitDx=0;exitDy=0;" parent="1" source="0gxmMsAvt_M_BW1Q_xT--5" target="0gxmMsAvt_M_BW1Q_xT--10" edge="1">
          <mxGeometry relative="1" as="geometry">
            <mxPoint x="50" y="450" as="sourcePoint" />
          </mxGeometry>
        </mxCell>
        <mxCell id="0gxmMsAvt_M_BW1Q_xT--12" value="Job*&lt;div&gt;(flatpak search)&lt;/div&gt;" style="whiteSpace=wrap;html=1;align=center;verticalAlign=middle;treeFolding=1;treeMoving=1;newEdgeStyle={&quot;edgeStyle&quot;:&quot;elbowEdgeStyle&quot;,&quot;startArrow&quot;:&quot;none&quot;,&quot;endArrow&quot;:&quot;none&quot;};" parent="1" vertex="1">
          <mxGeometry x="280" y="460" width="100" height="60" as="geometry" />
        </mxCell>
        <mxCell id="0gxmMsAvt_M_BW1Q_xT--13" value="" style="edgeStyle=elbowEdgeStyle;elbow=vertical;sourcePerimeterSpacing=0;targetPerimeterSpacing=0;startArrow=none;endArrow=none;rounded=0;curved=0;exitX=0.5;exitY=1;exitDx=0;exitDy=0;" parent="1" source="0gxmMsAvt_M_BW1Q_xT--5" target="0gxmMsAvt_M_BW1Q_xT--12" edge="1">
          <mxGeometry relative="1" as="geometry">
            <mxPoint x="260" y="440" as="sourcePoint" />
          </mxGeometry>
        </mxCell>
        <mxCell id="0gxmMsAvt_M_BW1Q_xT--14" value="Job*&lt;div&gt;(flatpak install)&lt;/div&gt;" style="whiteSpace=wrap;html=1;align=center;verticalAlign=middle;treeFolding=1;treeMoving=1;newEdgeStyle={&quot;edgeStyle&quot;:&quot;elbowEdgeStyle&quot;,&quot;startArrow&quot;:&quot;none&quot;,&quot;endArrow&quot;:&quot;none&quot;};" parent="1" vertex="1">
          <mxGeometry x="550" y="460" width="100" height="60" as="geometry" />
        </mxCell>
        <mxCell id="0gxmMsAvt_M_BW1Q_xT--15" value="" style="edgeStyle=elbowEdgeStyle;elbow=vertical;sourcePerimeterSpacing=0;targetPerimeterSpacing=0;startArrow=none;endArrow=none;rounded=0;curved=0;exitX=0.5;exitY=1;exitDx=0;exitDy=0;" parent="1" source="0gxmMsAvt_M_BW1Q_xT--3" target="0gxmMsAvt_M_BW1Q_xT--14" edge="1">
          <mxGeometry relative="1" as="geometry">
            <mxPoint x="530" y="430" as="sourcePoint" />
          </mxGeometry>
        </mxCell>
        <mxCell id="0gxmMsAvt_M_BW1Q_xT--16" value="Job*&lt;div&gt;(apt upgrade)&lt;/div&gt;" style="whiteSpace=wrap;html=1;align=center;verticalAlign=middle;treeFolding=1;treeMoving=1;newEdgeStyle={&quot;edgeStyle&quot;:&quot;elbowEdgeStyle&quot;,&quot;startArrow&quot;:&quot;none&quot;,&quot;endArrow&quot;:&quot;none&quot;};" parent="1" vertex="1">
          <mxGeometry x="420" y="460" width="100" height="60" as="geometry" />
        </mxCell>
        <mxCell id="0gxmMsAvt_M_BW1Q_xT--17" value="" style="edgeStyle=elbowEdgeStyle;elbow=vertical;sourcePerimeterSpacing=0;targetPerimeterSpacing=0;startArrow=none;endArrow=none;rounded=0;curved=0;exitX=0.5;exitY=1;exitDx=0;exitDy=0;" parent="1" source="0gxmMsAvt_M_BW1Q_xT--3" target="0gxmMsAvt_M_BW1Q_xT--16" edge="1">
          <mxGeometry relative="1" as="geometry">
            <mxPoint x="550" y="315" as="sourcePoint" />
          </mxGeometry>
        </mxCell>
        <mxCell id="0gxmMsAvt_M_BW1Q_xT--18" value="Job*&lt;div&gt;(flatpak update)&lt;/div&gt;" style="whiteSpace=wrap;html=1;align=center;verticalAlign=middle;treeFolding=1;treeMoving=1;newEdgeStyle={&quot;edgeStyle&quot;:&quot;elbowEdgeStyle&quot;,&quot;startArrow&quot;:&quot;none&quot;,&quot;endArrow&quot;:&quot;none&quot;};" parent="1" vertex="1">
          <mxGeometry x="680" y="460" width="100" height="60" as="geometry" />
        </mxCell>
        <mxCell id="0gxmMsAvt_M_BW1Q_xT--19" value="" style="edgeStyle=elbowEdgeStyle;elbow=vertical;sourcePerimeterSpacing=0;targetPerimeterSpacing=0;startArrow=none;endArrow=none;rounded=0;curved=0;exitX=0.5;exitY=1;exitDx=0;exitDy=0;" parent="1" source="0gxmMsAvt_M_BW1Q_xT--3" target="0gxmMsAvt_M_BW1Q_xT--18" edge="1">
          <mxGeometry relative="1" as="geometry">
            <mxPoint x="610" y="430" as="sourcePoint" />
          </mxGeometry>
        </mxCell>
        <mxCell id="0gxmMsAvt_M_BW1Q_xT--21" value="Process Tree" style="swimlane;startSize=20;horizontal=1;containerType=tree;" parent="1" vertex="1">
          <mxGeometry y="220" width="800" height="320" as="geometry" />
        </mxCell>
      </root>
    </mxGraphModel>
  </diagram>
  <diagram id="QZSQN5q-rm2cD_mtlUpO" name="FlowChart">
    <mxGraphModel dx="1070" dy="947" grid="1" gridSize="10" guides="1" tooltips="1" connect="1" arrows="1" fold="1" page="1" pageScale="1" pageWidth="827" pageHeight="1169" math="0" shadow="0">
      <root>
        <mxCell id="0" />
        <mxCell id="1" parent="0" />
        <mxCell id="ASNHD-cRR6tD81GRuEnh-22" value="" style="edgeStyle=orthogonalEdgeStyle;rounded=0;orthogonalLoop=1;jettySize=auto;html=1;" edge="1" parent="1" source="ASNHD-cRR6tD81GRuEnh-1" target="ASNHD-cRR6tD81GRuEnh-21">
          <mxGeometry relative="1" as="geometry" />
        </mxCell>
        <mxCell id="ASNHD-cRR6tD81GRuEnh-1" value="Start" style="strokeWidth=2;html=1;shape=mxgraph.flowchart.start_1;whiteSpace=wrap;" vertex="1" parent="1">
          <mxGeometry x="433" y="50" width="100" height="50" as="geometry" />
        </mxCell>
        <mxCell id="ASNHD-cRR6tD81GRuEnh-9" value="" style="edgeStyle=orthogonalEdgeStyle;rounded=0;orthogonalLoop=1;jettySize=auto;html=1;exitX=0;exitY=0.5;exitDx=0;exitDy=0;" edge="1" parent="1" source="ASNHD-cRR6tD81GRuEnh-25" target="ASNHD-cRR6tD81GRuEnh-8">
          <mxGeometry relative="1" as="geometry">
            <mxPoint x="433" y="350" as="sourcePoint" />
          </mxGeometry>
        </mxCell>
        <mxCell id="ASNHD-cRR6tD81GRuEnh-11" value="with/without&lt;div&gt;privilege&lt;br&gt;&lt;/div&gt;" style="edgeLabel;html=1;align=center;verticalAlign=middle;resizable=0;points=[];" vertex="1" connectable="0" parent="ASNHD-cRR6tD81GRuEnh-9">
          <mxGeometry x="-0.1556" relative="1" as="geometry">
            <mxPoint as="offset" />
          </mxGeometry>
        </mxCell>
        <mxCell id="ASNHD-cRR6tD81GRuEnh-33" value="" style="edgeStyle=orthogonalEdgeStyle;rounded=0;orthogonalLoop=1;jettySize=auto;html=1;" edge="1" parent="1" source="ASNHD-cRR6tD81GRuEnh-8" target="ASNHD-cRR6tD81GRuEnh-32">
          <mxGeometry relative="1" as="geometry" />
        </mxCell>
        <mxCell id="ASNHD-cRR6tD81GRuEnh-8" value="Start&lt;div&gt;(&lt;span style=&quot;background-color: initial;&quot;&gt;Worker&lt;/span&gt;&lt;span style=&quot;background-color: initial;&quot;&gt;)&lt;/span&gt;&lt;/div&gt;" style="strokeWidth=2;html=1;shape=mxgraph.flowchart.start_1;whiteSpace=wrap;" vertex="1" parent="1">
          <mxGeometry x="172" y="260" width="100" height="50" as="geometry" />
        </mxCell>
        <mxCell id="ASNHD-cRR6tD81GRuEnh-24" value="" style="edgeStyle=orthogonalEdgeStyle;rounded=0;orthogonalLoop=1;jettySize=auto;html=1;" edge="1" parent="1" source="ASNHD-cRR6tD81GRuEnh-21" target="ASNHD-cRR6tD81GRuEnh-23">
          <mxGeometry relative="1" as="geometry" />
        </mxCell>
        <mxCell id="ASNHD-cRR6tD81GRuEnh-21" value="Parser arguments" style="whiteSpace=wrap;html=1;strokeWidth=2;" vertex="1" parent="1">
          <mxGeometry x="423" y="120" width="120" height="50" as="geometry" />
        </mxCell>
        <mxCell id="ASNHD-cRR6tD81GRuEnh-26" value="" style="edgeStyle=orthogonalEdgeStyle;rounded=0;orthogonalLoop=1;jettySize=auto;html=1;" edge="1" parent="1" source="ASNHD-cRR6tD81GRuEnh-23" target="ASNHD-cRR6tD81GRuEnh-25">
          <mxGeometry relative="1" as="geometry" />
        </mxCell>
        <mxCell id="ASNHD-cRR6tD81GRuEnh-23" value="Start RPC Server" style="whiteSpace=wrap;html=1;strokeWidth=2;" vertex="1" parent="1">
          <mxGeometry x="423" y="190" width="120" height="50" as="geometry" />
        </mxCell>
        <mxCell id="ASNHD-cRR6tD81GRuEnh-31" value="" style="edgeStyle=orthogonalEdgeStyle;rounded=0;orthogonalLoop=1;jettySize=auto;html=1;entryX=0.5;entryY=0;entryDx=0;entryDy=0;" edge="1" parent="1" source="ASNHD-cRR6tD81GRuEnh-25" target="ASNHD-cRR6tD81GRuEnh-34">
          <mxGeometry relative="1" as="geometry">
            <mxPoint x="483" y="410" as="targetPoint" />
          </mxGeometry>
        </mxCell>
        <mxCell id="ASNHD-cRR6tD81GRuEnh-25" value="&lt;span style=&quot;color: rgb(0, 0, 0); font-family: Helvetica; font-size: 12px; font-style: normal; font-variant-ligatures: normal; font-variant-caps: normal; font-weight: 400; letter-spacing: normal; orphans: 2; text-align: center; text-indent: 0px; text-transform: none; widows: 2; word-spacing: 0px; -webkit-text-stroke-width: 0px; white-space: normal; background-color: rgb(251, 251, 251); text-decoration-thickness: initial; text-decoration-style: initial; text-decoration-color: initial; display: inline !important; float: none;&quot;&gt;Spawn worker&lt;/span&gt;" style="whiteSpace=wrap;html=1;strokeWidth=2;" vertex="1" parent="1">
          <mxGeometry x="423" y="260" width="120" height="50" as="geometry" />
        </mxCell>
        <mxCell id="ASNHD-cRR6tD81GRuEnh-37" value="" style="edgeStyle=orthogonalEdgeStyle;rounded=0;orthogonalLoop=1;jettySize=auto;html=1;" edge="1" parent="1" source="ASNHD-cRR6tD81GRuEnh-32" target="ASNHD-cRR6tD81GRuEnh-36">
          <mxGeometry relative="1" as="geometry" />
        </mxCell>
        <mxCell id="ASNHD-cRR6tD81GRuEnh-32" value="Check privilege" style="whiteSpace=wrap;html=1;strokeWidth=2;" vertex="1" parent="1">
          <mxGeometry x="162" y="330" width="120" height="50" as="geometry" />
        </mxCell>
        <mxCell id="ASNHD-cRR6tD81GRuEnh-47" value="" style="edgeStyle=orthogonalEdgeStyle;rounded=0;orthogonalLoop=1;jettySize=auto;html=1;" edge="1" parent="1" source="ASNHD-cRR6tD81GRuEnh-34" target="ASNHD-cRR6tD81GRuEnh-46">
          <mxGeometry relative="1" as="geometry" />
        </mxCell>
        <mxCell id="ASNHD-cRR6tD81GRuEnh-34" value="Handeshake" style="whiteSpace=wrap;html=1;strokeWidth=2;" vertex="1" parent="1">
          <mxGeometry x="423" y="400" width="120" height="50" as="geometry" />
        </mxCell>
        <mxCell id="ASNHD-cRR6tD81GRuEnh-36" value="Handeshake" style="whiteSpace=wrap;html=1;strokeWidth=2;" vertex="1" parent="1">
          <mxGeometry x="162" y="400" width="120" height="50" as="geometry" />
        </mxCell>
        <mxCell id="ASNHD-cRR6tD81GRuEnh-38" value="" style="endArrow=classic;dashed=1;html=1;rounded=0;entryX=0;entryY=0.5;entryDx=0;entryDy=0;exitX=1;exitY=0.5;exitDx=0;exitDy=0;startArrow=classic;startFill=1;endFill=1;" edge="1" parent="1" source="ASNHD-cRR6tD81GRuEnh-36" target="ASNHD-cRR6tD81GRuEnh-34">
          <mxGeometry width="50" height="50" relative="1" as="geometry">
            <mxPoint x="283" y="690" as="sourcePoint" />
            <mxPoint x="333" y="640" as="targetPoint" />
          </mxGeometry>
        </mxCell>
        <mxCell id="ASNHD-cRR6tD81GRuEnh-48" value="RPC&lt;div&gt;Channel&lt;/div&gt;" style="edgeLabel;html=1;align=center;verticalAlign=middle;resizable=0;points=[];" vertex="1" connectable="0" parent="ASNHD-cRR6tD81GRuEnh-38">
          <mxGeometry x="-0.2222" y="3" relative="1" as="geometry">
            <mxPoint as="offset" />
          </mxGeometry>
        </mxCell>
        <mxCell id="ASNHD-cRR6tD81GRuEnh-50" value="" style="edgeStyle=orthogonalEdgeStyle;rounded=0;orthogonalLoop=1;jettySize=auto;html=1;" edge="1" parent="1" source="ASNHD-cRR6tD81GRuEnh-44" target="ASNHD-cRR6tD81GRuEnh-49">
          <mxGeometry relative="1" as="geometry" />
        </mxCell>
        <mxCell id="ASNHD-cRR6tD81GRuEnh-44" value="Wait Job" style="shape=parallelogram;html=1;strokeWidth=2;perimeter=parallelogramPerimeter;whiteSpace=wrap;rounded=0;arcSize=12;size=0.23;" vertex="1" parent="1">
          <mxGeometry x="162" y="470" width="120" height="50" as="geometry" />
        </mxCell>
        <mxCell id="ASNHD-cRR6tD81GRuEnh-45" value="" style="edgeStyle=orthogonalEdgeStyle;rounded=0;orthogonalLoop=1;jettySize=auto;html=1;entryX=0.5;entryY=0;entryDx=0;entryDy=0;exitX=0.5;exitY=1;exitDx=0;exitDy=0;" edge="1" parent="1" source="ASNHD-cRR6tD81GRuEnh-36" target="ASNHD-cRR6tD81GRuEnh-44">
          <mxGeometry relative="1" as="geometry">
            <mxPoint x="222" y="460" as="sourcePoint" />
            <mxPoint x="232" y="420" as="targetPoint" />
          </mxGeometry>
        </mxCell>
        <mxCell id="ASNHD-cRR6tD81GRuEnh-55" value="" style="edgeStyle=orthogonalEdgeStyle;rounded=0;orthogonalLoop=1;jettySize=auto;html=1;" edge="1" parent="1" source="ASNHD-cRR6tD81GRuEnh-46" target="ASNHD-cRR6tD81GRuEnh-54">
          <mxGeometry relative="1" as="geometry" />
        </mxCell>
        <mxCell id="ASNHD-cRR6tD81GRuEnh-46" value="Job&amp;nbsp;dispatch" style="whiteSpace=wrap;html=1;strokeWidth=2;" vertex="1" parent="1">
          <mxGeometry x="423" y="470" width="120" height="120" as="geometry" />
        </mxCell>
        <mxCell id="ASNHD-cRR6tD81GRuEnh-57" value="" style="edgeStyle=orthogonalEdgeStyle;rounded=0;orthogonalLoop=1;jettySize=auto;html=1;" edge="1" parent="1" source="ASNHD-cRR6tD81GRuEnh-49" target="ASNHD-cRR6tD81GRuEnh-56">
          <mxGeometry relative="1" as="geometry" />
        </mxCell>
        <mxCell id="ASNHD-cRR6tD81GRuEnh-49" value="Exuecute Job" style="whiteSpace=wrap;html=1;strokeWidth=2;rounded=0;arcSize=12;" vertex="1" parent="1">
          <mxGeometry x="162" y="540" width="120" height="50" as="geometry" />
        </mxCell>
        <mxCell id="ASNHD-cRR6tD81GRuEnh-52" value="" style="endArrow=none;dashed=1;html=1;rounded=0;startArrow=classic;startFill=1;exitX=1;exitY=0.5;exitDx=0;exitDy=0;entryX=0;entryY=0.25;entryDx=0;entryDy=0;" edge="1" parent="1" source="ASNHD-cRR6tD81GRuEnh-44" target="ASNHD-cRR6tD81GRuEnh-46">
          <mxGeometry width="50" height="50" relative="1" as="geometry">
            <mxPoint x="383" y="730" as="sourcePoint" />
            <mxPoint x="433" y="680" as="targetPoint" />
          </mxGeometry>
        </mxCell>
        <mxCell id="ASNHD-cRR6tD81GRuEnh-64" value="RPC" style="edgeLabel;html=1;align=center;verticalAlign=middle;resizable=0;points=[];" vertex="1" connectable="0" parent="ASNHD-cRR6tD81GRuEnh-52">
          <mxGeometry x="0.0562" relative="1" as="geometry">
            <mxPoint as="offset" />
          </mxGeometry>
        </mxCell>
        <mxCell id="ASNHD-cRR6tD81GRuEnh-53" value="" style="endArrow=classic;dashed=1;html=1;rounded=0;endFill=1;exitX=1;exitY=0.5;exitDx=0;exitDy=0;entryX=0;entryY=0.75;entryDx=0;entryDy=0;" edge="1" parent="1" source="ASNHD-cRR6tD81GRuEnh-49" target="ASNHD-cRR6tD81GRuEnh-46">
          <mxGeometry width="50" height="50" relative="1" as="geometry">
            <mxPoint x="383" y="740" as="sourcePoint" />
            <mxPoint x="433" y="690" as="targetPoint" />
          </mxGeometry>
        </mxCell>
        <mxCell id="ASNHD-cRR6tD81GRuEnh-65" value="RPC" style="edgeLabel;html=1;align=center;verticalAlign=middle;resizable=0;points=[];" vertex="1" connectable="0" parent="ASNHD-cRR6tD81GRuEnh-53">
          <mxGeometry x="0.0425" y="-2" relative="1" as="geometry">
            <mxPoint as="offset" />
          </mxGeometry>
        </mxCell>
        <mxCell id="ASNHD-cRR6tD81GRuEnh-61" value="" style="edgeStyle=orthogonalEdgeStyle;rounded=0;orthogonalLoop=1;jettySize=auto;html=1;" edge="1" parent="1" source="ASNHD-cRR6tD81GRuEnh-54" target="ASNHD-cRR6tD81GRuEnh-60">
          <mxGeometry relative="1" as="geometry" />
        </mxCell>
        <mxCell id="ASNHD-cRR6tD81GRuEnh-54" value="Stop RPC Server" style="whiteSpace=wrap;html=1;strokeWidth=2;" vertex="1" parent="1">
          <mxGeometry x="423" y="610" width="120" height="50" as="geometry" />
        </mxCell>
        <mxCell id="ASNHD-cRR6tD81GRuEnh-59" value="" style="edgeStyle=orthogonalEdgeStyle;rounded=0;orthogonalLoop=1;jettySize=auto;html=1;" edge="1" parent="1" source="ASNHD-cRR6tD81GRuEnh-56" target="ASNHD-cRR6tD81GRuEnh-58">
          <mxGeometry relative="1" as="geometry" />
        </mxCell>
        <mxCell id="ASNHD-cRR6tD81GRuEnh-56" value="Exit Process" style="whiteSpace=wrap;html=1;strokeWidth=2;rounded=0;arcSize=12;" vertex="1" parent="1">
          <mxGeometry x="162" y="610" width="120" height="50" as="geometry" />
        </mxCell>
        <mxCell id="ASNHD-cRR6tD81GRuEnh-58" value="Finish" style="strokeWidth=2;html=1;shape=mxgraph.flowchart.terminator;whiteSpace=wrap;" vertex="1" parent="1">
          <mxGeometry x="172" y="680" width="100" height="50" as="geometry" />
        </mxCell>
        <mxCell id="ASNHD-cRR6tD81GRuEnh-63" value="" style="edgeStyle=orthogonalEdgeStyle;rounded=0;orthogonalLoop=1;jettySize=auto;html=1;" edge="1" parent="1" source="ASNHD-cRR6tD81GRuEnh-60" target="ASNHD-cRR6tD81GRuEnh-62">
          <mxGeometry relative="1" as="geometry" />
        </mxCell>
        <mxCell id="ASNHD-cRR6tD81GRuEnh-60" value="Wait worker exit" style="shape=parallelogram;perimeter=parallelogramPerimeter;whiteSpace=wrap;html=1;fixedSize=1;strokeWidth=2;" vertex="1" parent="1">
          <mxGeometry x="423" y="680" width="120" height="50" as="geometry" />
        </mxCell>
        <mxCell id="ASNHD-cRR6tD81GRuEnh-62" value="Exit" style="strokeWidth=2;html=1;shape=mxgraph.flowchart.terminator;whiteSpace=wrap;" vertex="1" parent="1">
          <mxGeometry x="433" y="750" width="100" height="50" as="geometry" />
        </mxCell>
        <mxCell id="ASNHD-cRR6tD81GRuEnh-66" value="" style="endArrow=classic;dashed=1;html=1;rounded=0;endFill=1;entryX=0;entryY=0.5;entryDx=0;entryDy=0;exitX=1;exitY=0.5;exitDx=0;exitDy=0;exitPerimeter=0;" edge="1" parent="1" source="ASNHD-cRR6tD81GRuEnh-58" target="ASNHD-cRR6tD81GRuEnh-60">
          <mxGeometry width="50" height="50" relative="1" as="geometry">
            <mxPoint x="263" y="860" as="sourcePoint" />
            <mxPoint x="313" y="810" as="targetPoint" />
          </mxGeometry>
        </mxCell>
        <mxCell id="ASNHD-cRR6tD81GRuEnh-67" value="waitpid" style="edgeLabel;html=1;align=center;verticalAlign=middle;resizable=0;points=[];" vertex="1" connectable="0" parent="ASNHD-cRR6tD81GRuEnh-66">
          <mxGeometry y="1" relative="1" as="geometry">
            <mxPoint as="offset" />
          </mxGeometry>
        </mxCell>
        <mxCell id="ASNHD-cRR6tD81GRuEnh-68" value="Worker" style="swimlane;fillColor=#fff2cc;strokeColor=#d6b656;" vertex="1" parent="1">
          <mxGeometry x="140" y="220" width="160" height="530" as="geometry" />
        </mxCell>
      </root>
    </mxGraphModel>
  </diagram>
</mxfile>
